inDegrees=no
num_controls=7
num_derivatives=13
num_iterations=90
num_multipliers=7
num_parameters=0
num_slacks=7
num_states=26
objective=5.979326
objective_accelerations=0.370279
objective_balance=0.071423
objective_effort=0.418827
objective_height=5.096203
objective_ligament=0.022594
solver_duration=799.185112
status=Solve_Succeeded
success=true
DataType=double
version=3
OpenSimVersion=4.4-2022-07-23-0e9fedc
endheader
time	/jointset/ground_pelvis/pelvis_tilt/value	/jointset/ground_pelvis/pelvis_tx/value	/jointset/ground_pelvis/pelvis_ty/value	/jointset/hip_r/hip_flexion_r/value	/jointset/hip_r/hip_adduction_r/value	/jointset/hip_r/hip_rotation_r/value	/jointset/back/lumbar_extension/value	/jointset/patellofemoral_r/patellar_flexion_r/value	/jointset/knee_r/knee_flexion_r/value	/jointset/knee_r/knee_adduction_r/value	/jointset/knee_r/knee_rotation_r/value	/jointset/ankle_r/ankle_angle_r/value	/jointset/subtalar_r/subtalar_angle_r/value	/jointset/ground_pelvis/pelvis_tilt/speed	/jointset/ground_pelvis/pelvis_tx/speed	/jointset/ground_pelvis/pelvis_ty/speed	/jointset/hip_r/hip_flexion_r/speed	/jointset/hip_r/hip_adduction_r/speed	/jointset/hip_r/hip_rotation_r/speed	/jointset/back/lumbar_extension/speed	/jointset/patellofemoral_r/patellar_flexion_r/speed	/jointset/knee_r/knee_flexion_r/speed	/jointset/knee_r/knee_adduction_r/speed	/jointset/knee_r/knee_rotation_r/speed	/jointset/ankle_r/ankle_angle_r/speed	/jointset/subtalar_r/subtalar_angle_r/speed	/forceset/tau_hip_flexion_r	/forceset/tau_hip_adduction_r	/forceset/tau_hip_rotation_r	/forceset/tau_knee_flexion_r	/forceset/tau_ankle_angle_r	/forceset/tau_subtalar_angle_r	/forceset/tau_lumbar_extension	lambda_cid13_p0	lambda_cid14_p0	lambda_cid14_p1	lambda_cid14_p2	lambda_cid14_p3	lambda_cid14_p4	lambda_cid14_p5	/jointset/ground_pelvis/pelvis_tilt/accel	/jointset/ground_pelvis/pelvis_tx/accel	/jointset/ground_pelvis/pelvis_ty/accel	/jointset/hip_r/hip_flexion_r/accel	/jointset/hip_r/hip_adduction_r/accel	/jointset/hip_r/hip_rotation_r/accel	/jointset/back/lumbar_extension/accel	/jointset/patellofemoral_r/patellar_flexion_r/accel	/jointset/knee_r/knee_flexion_r/accel	/jointset/knee_r/knee_adduction_r/accel	/jointset/knee_r/knee_rotation_r/accel	/jointset/ankle_r/ankle_angle_r/accel	/jointset/subtalar_r/subtalar_angle_r/accel	gamma_cid13_p0	gamma_cid14_p0	gamma_cid14_p1	gamma_cid14_p2	gamma_cid14_p3	gamma_cid14_p4	gamma_cid14_p5
0	-0.006516691680955661	0.09626121092020622	0.9427240287913551	0.1762555651711513	-0.2321527049011664	-0.2616406202321939	-0.0385979564078546	0.07317816487763365	0.07317816487761825	0.1745329045594504	0.1745327773852333	0.0324735960626065	-0.00345180333840591	0	0	0	0	0	0	0	0	0	0	0	0	0	0.2301180510116659	-0.116288172921407	-0.05006603319547203	-0.439868209980339	0.4810575912432775	-0.206703863615223	-0.1205568254896437	-39.07635746951896	102.7148296245735	-61.78912980328931	-1.10897322953886	-56.75161871158997	-680.8634694679625	14.01696974871118	-1.184995024564155	-0.4210851363876302	-0.452153319164564	6.527472833655429	0.08695918294528868	2.118927045750644	-4.466574793838768	8.091856235759733	8.091856235758108	-2.345021487245026	0.2240255801888928	3.461774063491977	0.8740003272343549	6.435691089888221e-08	3.237968311720848e-08	-4.542429270021835e-07	1.445232490387457e-07	2.145351862869755e-08	1.287671888596015e-08	-2.381933493352829e-07
0.01	-0.006571630699920687	0.09624174183823275	0.9427023573339255	0.1765698125853005	-0.2321473063184251	-0.2615262238449581	-0.03882259075301659	0.07357106670252916	0.07357106670245436	0.1744157583620039	0.174532298135788	0.03264435533222803	-0.003407633736157276	-0.01100508119193207	-0.003758726819128455	-0.004324043324967199	0.06249290804084951	0.001041719752529253	0.02284937019911262	-0.0446072136247956	0.07822302611524233	0.07822302611523588	-0.02324928836964603	-0.0001654310730427218	0.03413344095474166	0.008790215193708636	0.2301675534577753	-0.1727751234256418	-0.04974532374057226	-0.443449433314732	0.4759302072115114	-0.1556994482835863	-0.1199193134519755	-39.08954496791592	103.0164889120097	-39.86338316587001	-4.286663799542177	-59.25019734259423	-681.5986896162927	58.31852023834326	-1.060853945737995	-0.332998727805105	-0.4209900396553158	6.056715810361976	0.1070346420957886	2.363491066275862	-4.409846335065302	7.633912104501793	7.633912104502204	-2.287945442850165	-0.1472229038900524	3.386377883276139	0.8749215095795994	9.846144991809256e-08	3.706228036156907e-08	-6.976137998263559e-07	1.758440728753741e-07	5.126743262514355e-08	-1.080960133210993e-07	-3.470331030820622e-07
0.02	-0.006737138386652068	0.09618873903344274	0.942637753403146	0.1774982922839896	-0.2321326392840239	-0.2611842239438243	-0.03948370757210262	0.07473547604920795	0.07473547604924374	0.1740715066951569	0.1745280854832829	0.03315589876575635	-0.003276884103143621	-0.02211373355293009	-0.006706744563304779	-0.008586494669972022	0.1228464569242773	0.001853690332593182	0.04552070276954837	-0.08729649478019058	0.1543015044342823	0.1543015044342761	-0.04542109398032763	-0.0007466802596931255	0.06815683278191578	0.01731600615303801	0.2302170559029628	-0.229262073929772	-0.0494246142831336	-0.4470306566501502	0.4708028231795313	-0.1046950329519244	-0.119281801414897	-39.12839065431316	103.3899193131134	-17.93899427305674	-7.448232689621106	-61.95390163026064	-681.2812962934332	102.4287323264	-1.205709258377244	-0.2589433213972627	-0.4398349231720844	6.099601002171058	0.04100934845222746	2.083319520014898	-4.082988299958552	7.662946676519348	7.66294667651907	-2.129524935452134	0.1408619574677378	3.439764237978415	0.8211154803584938	1.325659889373029e-07	4.174487760592966e-08	-9.409846726505284e-07	2.071648967120024e-07	8.108134662158954e-08	-2.290687455281587e-07	-4.558728568288416e-07
0.03	-0.00701325638355736	0.09610814544538439	0.9425306531904805	0.1790215007406903	-0.2321108939753047	-0.2606199472034618	-0.04056247299946202	0.07665108865719777	0.07665108865711726	0.1735108509972136	0.1745193867198831	0.03400476880926013	-0.003062567536430035	-0.03300352580563057	-0.00949179368290118	-0.01283694618844384	0.181574156988197	0.002460553707367905	0.06719816338779577	-0.1281947334766889	0.2284955540754953	0.228495554075493	-0.06652282581177307	-0.000979598096644072	0.1013430031459754	0.02545020351119325	0.220372372740563	-0.2051748137303935	-0.04669906067136953	-0.4306209858190123	0.4489585495880759	-0.1171362328941326	-0.1120835680660752	-39.19178470276209	95.89110745587438	-24.60581286855737	-6.441765660014011	-55.75520486848149	-680.7503652006347	87.37786255340927	-1.014651508970754	-0.300242465855927	-0.4182063174731726	5.726199585888538	0.06520549803149536	2.189543101078919	-4.053963072165809	7.248787994682494	7.248787994683171	-2.072537720741549	-0.1032776583183784	3.216941389944523	0.7948815140021515	1.461274899817704e-07	4.169460276185462e-08	-1.036983182454999e-06	1.953826376401623e-07	9.327909417575627e-08	-3.147512067705526e-07	-4.742280441529587e-07
0.04	-0.007395079763060412	0.09599731001440716	0.942380937252371	0.1811253552135622	-0.2320841438996296	-0.2598429791033014	-0.04204236509731329	0.07929887253886495	0.07929887253883419	0.1727447698984962	0.1745087769778976	0.03517728014726703	-0.00276984706604332	-0.04325481006846434	-0.0127551131470777	-0.01710963975873018	0.2389756601475581	0.00285464372379951	0.08805897474000191	-0.1675218288799868	0.3007357591871173	0.3007357591871182	-0.08650617419325504	-0.001128876095290376	0.1328850916830246	0.03299678688767411	0.2105276895788318	-0.1810875535310078	-0.04397350705845428	-0.4142113149876951	0.4271142759967355	-0.1295774328363244	-0.1048853347168061	-39.27861087642106	88.45889626356035	-31.28885866032193	-5.4008563979521	-49.74002476978466	-679.2231408098351	72.11729885544844	-1.078007660403767	-0.354597390313345	-0.4442833335349772	5.834361621259338	-0.001545323216295452	1.91998966680745	-3.768759641318336	7.272177770601044	7.272177770600608	-1.905848245459649	0.157589925127834	3.110947872576304	0.7035926840236941	1.592654232329442e-07	4.154674292626545e-08	-1.129943086836383e-06	1.827116552093847e-07	1.051136218032781e-07	-3.997060335600668e-07	-4.907175703137221e-07
0.05	-0.00787699133184983	0.09585226741892759	0.9421882339564582	0.1837965919189438	-0.2320546301029427	-0.2588624240537418	-0.04390731161387309	0.08265976732837271	0.08265976732837678	0.1717848026426052	0.1744980341372652	0.03665806706987858	-0.002404444491075313	-0.05306291550358682	-0.0162501584007595	-0.02144232072303305	0.2949927251470026	0.003022956810851601	0.1079295800550565	-0.2052053126743163	0.3711060547943612	0.371106054794363	-0.10530447978514	-0.001035337663368753	0.1630963132804054	0.04002063334163258	0.2040471733488506	-0.1745943935397258	-0.04207635463837824	-0.405917165877415	0.4143479916396672	-0.1292319545006965	-0.09987916102166226	-39.38752561824698	84.42129746158736	-31.9138088412728	-5.223507668885547	-47.02931578083966	-678.402122579785	69.56547446659769	-0.9225076160544566	-0.3464498423983497	-0.4295363004477359	5.443543517534581	0.02212028502390211	2.002284149300426	-3.728818484858227	6.868851905565807	6.868851905566118	-1.83955862067524	-0.06703854502250572	2.949843215901206	0.6921589586356537	1.549494426269244e-07	3.620013686267991e-08	-1.091406947074751e-06	1.702730816308774e-07	1.079686061862251e-07	-4.599838458967657e-07	-4.783528465044209e-07
